<?xml version="1.0" encoding="UTF-8" standalone="no"?>
<svg
   xmlns:dc="http://purl.org/dc/elements/1.1/"
   xmlns:cc="http://creativecommons.org/ns#"
   xmlns:rdf="http://www.w3.org/1999/02/22-rdf-syntax-ns#"
   xmlns:svg="http://www.w3.org/2000/svg"
   xmlns="http://www.w3.org/2000/svg"
   id="svg8"
   version="1.1"
   viewBox="0 0 174 80"
   height="80mm"
   width="174mm">
  <defs
     id="defs2" />
  <metadata
     id="metadata5">
    <rdf:RDF>
      <cc:Work
         rdf:about="">
        <dc:format>image/svg+xml</dc:format>
        <dc:type
           rdf:resource="http://purl.org/dc/dcmitype/StillImage" />
        <dc:title></dc:title>
      </cc:Work>
    </rdf:RDF>
  </metadata>
  <g
     transform="translate(0,-217)"
     id="layer1">
    <g
       style="fill:none;fill-rule:evenodd;stroke:none;stroke-width:1"
       transform="matrix(0.26458333,0,0,0.26458333,1.8189257,52.655195)"
       id="Scene/Whiteboard">
      <g
         style="opacity:0.5;fill:#ac9393"
         id="Big-Cards"
         transform="matrix(-1,0,0,1,453.53636,64)" />
      <g
         transform="translate(-51.499995,287.5)"
         id="g4995">
        <path
           id="Background-Shape"
           d="M 686.72509,519.87459 C 670.4188,435.90125 505.41859,483.73966 397.24629,457.77914 289.074,431.81862 161.09716,310.91523 76.399844,370.13977 -8.2974757,429.36432 81.819504,572.5272 276.07884,604.8343 c 194.25935,32.30711 426.95253,-0.98637 410.64625,-84.95971 z"
           style="fill:#f1f1f2;fill-opacity:1" />
        <path
           transform="matrix(-1,0,0,1,453.53636,64)"
           id="Image-Border"
           d="m -30.244555,358.31665 c -0.390516,-1.73544 -0.179182,-4.38785 -0.200929,-5.0011 -0.102056,-2.87458 -0.137775,-5.75056 -0.248645,-8.62421 -0.263488,-6.84817 -0.438375,-13.73575 -0.96628,-20.56862 -0.504247,-6.53145 -1.778086,-12.8649 -1.814733,-19.44504 -0.02459,-4.45029 -1.261314,-15.72649 2.63628,-18.74946 6.698092,-3.90867 4.049286,9.8818 3.939345,12.26855 -0.330289,7.18576 0.117827,14.0548 0.84103,21.19511 0.662434,6.54443 -0.09927,13.05919 -0.353483,19.60409 -0.134992,3.47463 -0.20875,6.94416 -0.470384,10.41276 -0.08128,1.08167 0.0439,5.95582 -0.523452,8.55199 1.460446,-0.0626 2.849666,0.003 3.624689,-0.0208 5.426109,-0.16415 10.852681,-0.30791 16.2778605,-0.51194 20.8703615,-0.78461 41.7523205,-0.42987 62.6185065,-1.42083 19.73615,-0.9381 39.54467,-1.13703 59.29567,-1.37956 1.72798,0.15071 2.50082,1.96431 1.39167,3.35824 -1.08504,1.36379 -6.11545,1.06469 -7.6834,1.19129 -5.56295,0.44702 -11.11524,0.64827 -16.69489,0.7016 -11.75031,0.11176 -23.45608,0.61535 -35.186903,1.2845 -20.842991,1.18804 -41.7166,1.08973 -62.5707255,1.93787 -5.0619545,0.20589 -10.1243745,0.35984 -15.1886495,0.49247 -2.670608,0.07 -9.664198,1.67865 -10.987209,-1.51218 -0.934503,-2.25469 0.364547,-3.29248 2.264632,-3.76477 z M 85.20587,277.15813 c 6.31445,-0.0584 12.59412,0.0519 18.89929,0.41363 2.79633,0.16045 5.59126,0.31533 8.38943,0.43358 1.61666,0.0686 5.30968,-0.4614 6.72732,0.28843 5.5662,2.9446 -5.77356,3.26735 -7.15224,3.24416 -5.78469,-0.0974 -11.55825,-0.54765 -17.34248,-0.68954 -21.27488,-0.52261 -42.708398,0.77209 -63.964251,1.64387 -10.225039,0.41967 -20.444511,0.47949 -30.66583945,1.05357 -5.58661405,0.31393 -11.17044455,0.67285 -16.75798555,0.96731 -2.575975,0.13587 -5.152878,0.26757 -7.732564,0.33249 -1.588819,0.0403 -4.824445,0.69835 -6.293117,0.0978 -1.250645,-0.51148 -2.261922,-1.22653 -1.574439,-2.74196 0.740367,-1.63089 3.962539,-0.93671 5.326372,-0.96314 4.923717,-0.0955 9.836764,-0.3719 14.751667,-0.67285 11.1597745,-0.68306 22.295892,-1.48204 33.478398,-1.67263 21.309663,-0.36355 42.59103,-1.53722 63.910439,-1.73476 z m 29.31286,7.26213 c 0.004,-2.92188 3.50746,-3.50941 5.06149,-1.52238 1.4863,1.90077 0.52976,7.6555 0.56594,9.92956 0.11969,7.49367 0.82804,14.94421 1.50115,22.40355 0.668,7.39814 1.1407,14.79953 1.65608,22.20926 0.2389,3.42455 2.87054,17.0926 -0.95468,19.08797 -4.88197,2.54627 -3.96069,-10.40905 -4.09753,-12.77076 -0.43884,-7.60217 -0.99041,-15.21455 -1.67835,-22.79771 -1.11195,-12.25928 -2.06338,-24.23059 -2.0541,-36.53949 z"
           style="opacity:0.5;fill:#ac9393;fill-rule:evenodd;stroke:none;stroke-width:1" />
        <path
           transform="matrix(-1,0,0,1,453.53636,64)"
           id="Image-X"
           d="m 50.042865,319.61001 c 6.693876,2.37901 13.350076,4.8642 19.976935,7.4246 3.54597,1.36982 7.07291,2.78415 10.611,4.17345 1.77205,0.69557 9.14093,2.4424 9.56492,4.21194 0.59795,2.49851 -7.25708,-0.57037 -8.50679,-0.9701 -3.5302,-1.12822 -7.01632,-2.39138 -10.50245,-3.64759 -7.80029,-2.81013 -15.567182,-5.70928 -23.39809,-8.43408 -0.732521,-0.25491 -1.465359,-0.50894 -2.198506,-0.76211 -8.312127,3.73346 -16.60768,7.50289 -24.876216,11.33213 -4.433386,2.05333 -8.843114,4.15444 -13.2407815,6.28382 -3.260211,1.57896 -9.160877,6.0835 -12.752305,6.00514 -1.358731,-0.0302 -2.274447,-0.32136 -2.416397,-1.96848 -0.180917,-2.1062 3.211966,-2.9715 4.582758,-3.65687 4.700122,-2.35058 9.429469,-4.64181 14.1722695,-6.90428 9.419728,-4.49295 18.927595,-8.80645 28.469325,-13.03415 0.05491,-0.0243 0.10982,-0.0487 0.164731,-0.073 -5.291824,-1.79092 -10.598466,-3.53921 -15.916695,-5.25051 -3.0394,-0.97798 -24.34952745,-6.23699 -23.57251345,-9.0601 0.87257495,-3.16441 19.74682245,4.2968 22.64983845,5.22191 7.146958,2.27769 14.274068,4.61969 21.363987,7.06817 17.01408,-7.6437 34.208645,-15.78827 51.955665,-21.35012 1.1175,-0.34964 1.82401,0.80269 1.57026,1.76954 -0.33957,1.29424 -4.3202,2.34177 -5.42472,2.83517 -4.37076,1.95178 -8.76379,3.85534 -13.13455,5.80851 -9.52178,4.2546 -19.061655,8.46933 -28.582047,12.72671 -0.18655,0.0834 -0.373093,0.16687 -0.559628,0.25032 z"
           style="opacity:0.5;fill:#ff0000;fill-rule:evenodd;stroke:none;stroke-width:1" />
        <path
           transform="matrix(-1,0,0,1,453.53636,64)"
           id="Fill-117"
           d="m -12.892442,373.13339 c 4.3517415,0.76282 7.4212935,4.93719 6.9439525,9.30912 -0.64527,5.90682 -6.5324835,8.614 -11.9711165,7.8433 -6.171114,-0.87457 -7.469075,-6.09138 -4.479311,-11.11019 0.66197,-1.11106 1.423211,-2.44054 2.626539,-3.02575 0.827114,-0.40204 1.881069,-0.0464 2.547214,-0.37051 2.33568,-1.13657 0.931489,-2.94785 4.332722,-2.64597 m -1.981269,-3.85859 c -5.310137,0.67842 -15.121851,6.82313 -14.625026,12.97109 0.430953,0.71273 1.079006,1.00441 1.944158,0.87503 -0.208286,1.3318 -0.140558,2.64922 0.203648,3.95273 0.504247,1.6921 1.510422,3.07908 2.858947,4.18087 2.776839,2.26943 6.572842,2.82635 10.03067,2.42848 6.4568685,-0.74241 11.5457295,-5.15514 11.9084915,-11.87068 0.353947,-6.5551 -5.368123,-13.4158 -12.3208885,-12.53752"
           style="opacity:0.5;fill:#ac9393;fill-rule:evenodd;stroke:none;stroke-width:1" />
        <path
           transform="matrix(-1,0,0,1,453.53636,64)"
           id="Fill-119"
           d="m 10.845634,377.27471 c -2.3825335,1.2627 -6.1516315,3.20243 -7.5488645,5.60077 -1.476094,2.53282 0.05242,5.30399 3.162331,4.10575 2.468816,-0.95109 4.0390805,-3.97359 6.6725775,-4.9423 2.324084,-0.85463 3.260675,-0.4192 5.716967,0.43219 2.530978,0.87689 4.743264,1.72456 7.479281,1.5094 3.438808,-0.27035 6.416975,-2.26433 9.782952,-2.71785 2.833898,-0.3821 5.17097,0.72062 7.885184,1.15929 3.148877,0.5087 5.207616,-0.68305 8.153775,-1.3035 2.004,-0.42245 5.53605,1.29562 6.997764,0.65291 3.286652,-1.44494 -0.190195,-3.2117 -2.009567,-3.79552 -3.064914,-0.98308 -4.951086,-0.11547 -7.866164,0.69975 -3.165114,0.88523 -4.532194,0.2198 -7.557678,-0.5931 -6.121014,-1.6448 -10.849897,2.33203 -16.651755,1.6091 -5.371834,-0.66961 -8.58612,-5.39813 -14.216803,-2.41689"
           style="opacity:0.5;fill:#ac9393;fill-rule:evenodd;stroke:none;stroke-width:1" />
        <path
           transform="matrix(-1,0,0,1,453.53636,64)"
           id="Fill-121"
           d="m 110.93532,374.33623 c 5.89185,5.52379 -0.72691,13.38286 -7.22368,8.96828 -2.28604,-1.55391 -2.32269,-4.04964 -0.54321,-6.28244 1.62732,-2.0422 5.20298,-2.83841 7.76689,-2.68584 z m -2.18399,-4.46374 c -5.5045,1.07072 -10.69681,3.59659 -11.19503,9.94951 -0.48662,6.1985 5.87144,9.07725 11.21266,8.67057 11.99153,-0.91305 11.12452,-20.77405 -0.0176,-18.62008 z"
           style="opacity:0.5;fill:#ac9393;fill-rule:evenodd;stroke:none;stroke-width:1" />
        <g
           transform="matrix(-1,0,0,1,696.53636,343)"
           id="Cards"
           style="opacity:0.5;fill:#ac9393">
          <path
             id="Fill-173"
             d="M 55.509017,0.36169818 C 47.084783,0.45633256 38.664721,0.76714156 30.257177,1.299228 22.261804,1.8058003 13.586743,1.4212321 5.7216514,2.9711021 3.4883251,3.4108737 0.47145693,5.4464407 3.4410344,7.6851932 5.5283159,9.2591857 13.164836,7.4486073 15.657334,7.2955223 24.836365,6.7314271 34.020033,6.0555335 43.212046,5.7308077 51.913997,5.423246 60.615485,5.3146947 69.32161,5.2279466 c 1.329239,-0.012989 3.535675,-0.4393077 4.85935,-0.053348 1.901828,0.5548172 1.450712,0.7055828 1.593048,3.1196873 0.258244,4.3740571 0.186844,8.7638861 0.100145,13.1421181 -0.08392,4.236744 -0.240626,8.473024 -0.225327,12.711624 0.01066,3.024125 -0.956013,9.033409 0.561462,11.659513 2.184181,3.780272 4.449961,-0.325654 4.61316,-2.83764 0.31249,-4.80455 0.172472,-9.668015 0.173863,-14.478597 9.28e-4,-4.515544 0.03338,-9.031089 -0.125644,-13.544314 C 80.756222,11.686743 81.222174,5.9956912 79.465927,3.0318722 77.677226,0.01331376 73.370528,0.66415708 70.228015,0.52034994 65.326009,0.29489744 60.415195,0.31066983 55.509017,0.36169818"
             style="fill:#ac9393" />
          <path
             id="Fill-171"
             d="M 1.9096091,5.810403 C 1.9188818,14.294561 0.93736808,22.722124 0.66243296,31.19654 0.53632444,35.092786 0.28039832,39.371281 1.2660848,43.196087 2.2610439,47.058005 5.4211751,47.89487 5.785128,43.583438 6.5223065,34.852953 6.3414891,25.800061 6.9154683,16.999527 7.1180765,13.892365 8.4366524,8.1980656 7.2057034,5.2885222 6.1217265,2.7255077 1.9049728,2.234244 1.9096091,5.810403"
             style="fill:#ac9393" />
          <path
             id="Fill-175"
             d="m 80.905929,43.207554 c -14.629979,1.936758 -29.924347,1.230711 -44.658644,1.535025 -7.069031,0.146127 -14.136672,0.155405 -21.206631,0.229164 -2.467462,0.02551 -8.7334789,-0.912943 -10.8680511,0.4741 -3.39797552,2.208135 0.2888442,3.912018 2.5383977,3.960727 13.9521464,0.305706 28.0596094,-0.335859 42.0089734,-0.793723 6.267409,-0.205505 12.555216,-0.30617 18.805934,-0.83872 3.848164,-0.327973 8.053327,-0.645741 11.790219,-1.67976 0.79606,-0.220814 2.529589,-0.174889 2.708088,-1.260864 0.109881,-0.671719 -0.08948,-1.767901 -1.118286,-1.625949"
             style="fill:#ac9393" />
          <path
             id="Fill-177"
             d="m 20.070205,55.540177 c -4.066073,0.02366 -16.3189992,-1.864854 -18.0029189,2.100048 -2.24491714,5.287928 6.5126706,4.053506 8.8679329,3.9932 5.349412,-0.137313 10.695115,-0.152157 16.045918,-0.149838 5.250195,0.0023 10.499925,-0.03155 15.749193,-0.156332 1.52072,-0.03665 5.060568,0.594712 5.935446,-1.236742 0.664851,-1.391682 0.139553,-2.489719 -1.086759,-3.226383 -2.950569,-1.773467 -10.615834,-0.745013 -14.070373,-0.904593 -4.47268,-0.205969 -8.960196,-0.41936 -13.438439,-0.41936"
             style="fill:#ac9393" />
          <path
             id="Fill-179"
             d="m 69.536689,56.519179 c -2.323734,0.13824 -7.024059,-0.819701 -9.105777,0.243544 -2.365925,1.208908 -1.532311,3.101596 0.510462,3.933358 1.414548,0.575692 7.217394,0.273697 8.595315,-0.393383 1.436339,-0.695841 3.06045,-3.97186 0,-3.783519"
             style="fill:#ac9393" />
          <path
             id="Fill-181"
             d="M 95.01279,6.6428697 C 92.530956,7.3238662 93.283898,21.41372 93.219916,23.647369 c -0.175254,6.11969 -0.863287,13.81662 1.170213,19.710394 1.296785,3.757078 3.787428,3.247722 3.363203,-0.707902 C 97.38057,39.178078 96.741219,35.74619 96.464429,32.251676 95.838522,24.344602 94.986826,15.910545 95.57796,7.9969764 c 0.251753,0.459719 2.606088,4.7247606 3.160131,4.4065296 -0.167372,0.09927 -2.715506,-6.0269114 -3.725301,-5.7606363"
             style="fill:#ac9393" />
          <path
             id="Fill-183"
             d="m 122.93002,1.4534728 c -5.02255,0.074223 -10.0451,0.1632907 -15.06626,0.3024589 -3.99236,0.1113346 -10.265792,-0.5446116 -13.927112,1.1346848 -4.359553,1.9993833 -2.29128,6.4546216 1.803538,6.548792 3.622374,0.083501 7.485374,-0.7334164 11.140664,-0.8586678 9.8731,-0.3381788 19.76381,-0.4100823 29.64153,-0.4945111 8.93331,-0.077006 18.24633,0.875832 27.10128,-0.4657496 1.31348,11.66276 -2.23889,23.374692 -1.03066,35.171518 0.18731,1.830989 0.10339,4.418126 2.43501,4.835167 2.94269,0.52652 3.06369,-2.388126 3.17543,-4.475185 0.31852,-5.959183 0.14604,-11.923005 0.58232,-17.890074 0.40429,-5.529617 1.20035,-11.181238 0.52762,-16.7196685 -0.82712,-6.8155311 -4.09296,-6.269064 -9.86614,-6.5525032 C 147.25413,1.3917749 135.13658,1.2744097 122.93002,1.4534728"
             style="fill:#ac9393" />
          <path
             id="Fill-185"
             d="m 106.09768,42.866453 c -2.55926,0.06448 -6.809858,-0.724139 -8.449732,1.729861 -1.706174,2.553272 0.318053,4.780428 2.798962,5.304628 2.93666,0.620226 6.76581,-0.230092 9.81375,-0.23937 3.17404,-0.0093 6.349,0.02598 9.52304,0.0385 13.60813,0.05335 27.27468,0.259316 40.87307,-0.303387 1.89905,-0.0784 7.2888,0.558528 8.6032,-1.263183 1.1665,-1.615743 0.35051,-3.064948 -1.18551,-3.887896 -2.52032,-1.350396 -7.6968,-0.836865 -10.49993,-0.944025 -3.46196,-0.131746 -6.92809,-0.174888 -10.3919,-0.228699 -13.67164,-0.211072 -27.41469,-0.544612 -41.08495,-0.206433"
             style="fill:#ac9393" />
          <path
             id="Fill-187"
             d="m 117.60907,54.670375 c -5.09256,0.08675 -10.52589,-0.136848 -15.56791,0.635535 -4.43327,0.679141 -4.978968,4.964594 -0.20678,5.466064 4.38552,0.46111 9.70247,-0.400341 14.10932,-0.683316 1.56523,-0.100665 3.38546,0.04221 4.13562,-1.688111 0.78307,-1.807795 -0.714,-3.541367 -2.47025,-3.730172"
             style="fill:#ac9393" />
          <path
             id="Fill-189"
             d="m 156.10838,55.120214 c -2.71829,0.06773 -10.65756,-1.100821 -12.00395,2.003558 -2.24121,5.168707 8.50676,3.205044 10.56854,3.128965 2.59867,-0.09556 12.72676,1.421835 12.72908,-2.715172 0.002,-4.056753 -8.80488,-2.479049 -11.29367,-2.417351"
             style="fill:#ac9393" />
          <path
             id="Fill-191"
             d="m 1.4700788,80.803846 c 0.00649,9.402668 -0.57861558,18.893476 0.2791078,28.272024 0.3546802,3.87908 0.2939441,11.30973 2.5407158,14.59828 1.5949019,2.33431 3.806901,2.17056 4.6780698,-0.63229 0.5823246,-1.87367 -0.3491166,-5.621 -0.4529707,-7.62549 -0.100145,-1.92377 -0.2169808,-3.84661 -0.3059986,-5.77084 -0.2285717,-4.95717 -0.21049,-9.906922 -0.1423357,-14.866876 0.058418,-4.254373 1.082586,-9.883263 0.1168358,-13.974808 -0.9003777,-3.813209 -6.7134242,-4.704813 -6.7134242,0"
             style="fill:#ac9393" />
          <path
             id="Fill-193"
             d="m 95.966764,72.532105 c -16.312972,0.409154 -32.662571,0.04361 -48.96117,0.851246 -8.038027,0.398021 -16.044528,1.272461 -24.042219,2.144118 -3.9293,0.428638 -7.856282,0.870265 -11.778628,1.353643 -1.183659,0.145662 -11.01919596,0.526983 -7.3198581,4.267361 1.6153018,1.633371 6.7556151,-0.07283 8.7895781,-0.313593 3.93811,-0.464822 7.884101,-0.870265 11.827774,-1.287306 7.504384,-0.793722 15.018041,-1.545695 22.554416,-1.962735 17.749311,-0.983456 35.571876,-0.688419 53.338803,-1.343901 4.80603,-0.177208 9.5977,-0.304315 14.40558,-0.115046 1.26248,0.04964 10.5398,0.520953 6.51175,-2.905368 -1.90461,-1.620846 -9.08584,-0.784445 -11.46614,-0.833154 -4.61965,-0.09556 -9.24209,0.02876 -13.859886,0.144735"
             style="fill:#ac9393" />
          <path
             id="Wireframy-Stuff"
             d="m 121.37376,122.13768 c -0.003,0.004 -0.005,0.008 -0.008,0.0114 -0.88878,1.31004 -4.17317,0.94542 -5.61136,1.0433 -4.37717,0.29736 -8.67321,0.79929 -13.01143,1.44967 -8.644002,1.29565 -17.212891,2.09216 -25.950542,2.30833 -17.28104,0.42725 -34.63348,0.0278 -51.888557,1.21169 -3.821737,0.26257 -7.58552,0.71255 -11.344667,1.43205 -2.684442,0.51445 -7.8576734,2.27447 -8.1715538,-2.16036 -0.3787892,-5.34406 13.0295138,-5.33478 16.8633058,-5.69151 16.461335,-1.53132 33.193432,-1.20845 49.705303,-0.97836 7.984709,0.11087 15.954582,0.35488 23.932801,-0.13313 7.97046,-0.48754 16.21119,-0.35953 24.12326,-1.21669 -1.01904,-3.95108 -0.86992,-8.89181 -1.15584,-12.92884 -0.73439,-10.364779 -0.53781,-20.765284 -1.01072,-31.140737 -0.20817,-4.571212 6.01844,-5.263806 7.86509,-1.563787 1.8652,3.737594 0.65326,11.153404 0.77381,15.297369 0.2791,9.594257 2.05807,20.334795 0.17896,29.823745 -0.65364,3.30016 -3.43746,5.03462 -5.29023,3.23589 z"
             style="fill:#ac9393" />
          <path
             id="Fill-199"
             d="m 131.40785,78.692757 c -2.20366,0.299675 -4.04196,2.185868 -3.05813,4.57817 1.23929,3.012064 4.93028,1.835165 7.36854,1.644504 7.75011,-0.607237 15.84191,0.605382 23.49837,-0.309417 2.09099,-0.250039 5.12455,-1.388899 3.2473,-4.198705 -1.41131,-2.111645 -6.55301,-1.740994 -8.73858,-1.943252 -7.47518,-0.691666 -14.85206,-0.507036 -22.3175,0.2287"
             style="fill:#ac9393" />
          <path
             id="Fill-201"
             d="m 144.48832,91.833993 c -3.00575,0.202258 -10.00245,0.04314 -11.2691,3.462969 -2.27181,6.134998 6.62719,3.973253 9.33667,3.624404 3.14761,-0.405443 10.56761,0.680069 12.24365,-2.372354 2.99693,-5.458177 -7.67546,-4.896865 -10.31122,-4.715019"
             style="fill:#ac9393" />
          <path
             id="Fill-203"
             d="m 136.75911,105.29778 c -1.42567,1.42647 -1.42799,3.97371 0,5.40019 1.74837,1.74656 5.55759,1.38379 7.8549,1.51136 3.20417,0.17907 12.40685,1.87367 13.99804,-1.89918 2.14663,-5.09077 -6.18673,-4.98408 -8.92774,-5.27308 -3.16801,-0.33354 -10.29963,-2.36633 -12.9252,0.26071"
             style="fill:#ac9393" />
          <path
             id="Fill-205"
             d="m 24.437176,18.158668 c 0,5.473022 8.548025,5.473022 8.548025,0 0,-5.443333 -8.548025,-5.52637 -8.548025,0"
             style="fill:#ac9393" />
          <path
             id="Fill-207"
             d="m 40.651208,18.220737 c 0,6.257003 9.73632,6.244478 9.73632,0 0,-6.2352 -9.73632,-6.298753 -9.73632,0"
             style="fill:#ac9393" />
          <path
             id="Fill-209"
             d="m 29.842469,35.375018 c -4.732779,-1.255272 -0.372762,-5.107984 1.824864,-5.988056 3.492557,-1.399203 8.259181,-2.430336 11.752665,-0.332868 1.389976,0.834621 2.518462,1.943734 1.499857,3.563513 -1.085367,1.724496 -2.571315,0.957608 -4.223708,0.798526 -2.093309,-0.202305 -3.78511,-0.171113 -5.806555,0.473679 -1.508666,0.481256 -3.401685,1.920118 -5.047123,1.485206"
             style="fill:#ac9393;stroke-width:0.98009062" />
          <path
             id="Fill-211"
             d="m 116.68996,18.505197 c 0,3.701874 5.74814,3.701874 5.74814,0 0,-3.701875 -5.74814,-3.701875 -5.74814,0"
             style="fill:#ac9393" />
          <path
             id="Fill-213"
             d="m 129.40212,19.062426 c 0,4.112885 6.38563,4.113349 6.38563,0 0,-4.113348 -6.38563,-4.112884 -6.38563,0"
             style="fill:#ac9393" />
          <path
             id="Fill-215"
             d="m 128.92917,27.988304 c -3.3544,0.432349 -13.05594,1.415805 -13.59886,5.550492 -0.83732,6.379007 9.79288,1.21633 12.21908,0.715325 3.09012,-0.637854 5.84967,-0.471317 8.9347,-0.347457 1.69365,0.06773 3.94645,0.342354 3.76888,-2.237825 -0.29116,-4.236744 -8.39178,-4.056289 -11.3238,-3.680535"
             style="fill:#ac9393" />
          <path
             id="Fill-217"
             d="m 48.591682,89.15591 c -2.431298,-0.58666 -5.611829,-4.389023 -3.939037,-6.71593 2.742861,-3.81663 3.952483,2.04323 5.100441,2.607227 2.088672,1.026443 3.784183,-2.723886 5.966973,-0.756612 3.444339,3.104085 -4.959959,5.390705 -7.128377,4.865315"
             style="fill:#ac9393;stroke-width:0.95110685" />
          <path
             id="eye"
             d="m 69.786726,88.69477 c -2.374997,-0.01327 -7.388877,-2.058587 -7.744039,-3.568654 -0.210805,-0.897393 0.767224,-1.759457 2.357429,-1.771544 2.165337,-0.01604 2.85351,1.69647 4.730516,2.054637 2.0248,0.38629 1.72425,-0.5032 3.47294,-0.964331 1.279725,-0.337714 2.880242,-0.196399 3.324766,0.760727 0.838638,1.805244 -3.701312,3.517519 -6.141612,3.489165"
             style="fill:#ac9393;stroke-width:0.64241463" />
          <path
             id="Fill-221"
             d="m 50.379646,100.23839 c -4.61177,-1.642204 2.976532,-5.161967 5.607193,-5.602254 3.971491,-0.6641 11.964546,0.575587 12.905723,3.523428 0.374617,1.173163 -0.83315,2.235826 -2.964013,2.025836 -1.754393,-0.17307 -2.879633,-1.510283 -4.504671,-1.989191 -2.193454,-0.646338 -4.1435,-0.602364 -6.007309,0.370665 -1.518402,0.792631 -2.331617,2.630166 -5.036923,1.671516"
             style="fill:#ac9393;stroke-width:0.77950418" />
          <path
             id="Fill-223"
             d="m 53.722171,140.88536 c -4.120318,0.87861 -8.30879,0.28901 -12.449044,1.1152 -4.221854,0.8429 -6.744951,2.43776 -10.667297,0.83083 -0.184527,-0.0779 -0.368589,-0.15586 -0.552652,-0.2338 -3.035877,-1.30725 -6.217799,-1.6946 -9.395549,0.38967 -1.8805,1.23303 -7.589229,5.49854 -6.901196,8.10145 1.491048,5.64281 7.914701,-3.20551 9.552721,-4.06789 3.123504,-1.6445 5.26503,0.45647 8.480798,1.04933 3.851873,0.71022 6.951268,-1.32534 10.57967,-2.13577 4.243645,-0.9482 9.017687,-1.27849 13.335049,-1.78599 1.705711,-0.2004 8.166454,1.1486 8.749706,-0.97418 1.001914,-3.64667 -9.112732,-2.6326 -10.732206,-2.28885"
             style="fill:#ac9393" />
          <path
             id="Fill-225"
             d="m 83.449334,152.24984 c 0.269371,0.20411 0.05332,0.0403 0,0 m 11.539857,-11.58529 c 3.527329,-0.35767 14.813119,-2.87754 17.130359,0.76728 1.50913,2.37421 -0.886,11.1367 -3.17079,12.26999 -1.82626,0.90506 -6.0801,-0.0956 -8.08393,-0.16653 -3.728549,-0.13129 -7.464977,-0.18974 -11.189351,-0.42215 -1.249031,-0.0779 -5.268277,0.1517 -6.247472,-0.95376 -1.156304,-1.3054 -1.104841,-8.26428 -1.376994,-9.98996 3.243122,1.04979 9.547157,-1.1602 12.938178,-1.50487 m 7.532199,-3.57338 c -4.517649,0.19576 -9.034374,0.53533 -13.518181,1.14118 -2.499453,0.33771 -5.031823,1.23581 -7.340258,1.6612 -0.744133,0.13732 -1.9519,-0.24308 -2.864332,0.19762 -2.666361,1.28777 -0.331499,9.99738 0.311562,12.32428 0.987541,3.5743 3.473084,4.15324 6.955441,4.49003 4.587198,0.44441 9.268513,0.30477 13.870083,0.24818 4.435585,-0.0543 10.416475,0.92872 12.905255,-3.52188 1.60882,-2.87754 3.33446,-9.57895 1.95932,-12.78585 -1.8091,-4.21958 -8.56378,-3.91063 -12.27889,-3.75476"
             style="fill:#ac9393" />
          <path
             id="quare"
             d="m 153.11085,154.64362 c -0.24156,0.31035 -0.24156,0.31035 0,0 m 0.98986,-1.19313 c -0.0746,0.11319 -0.42145,0.4792 0,0 m -10.77347,-0.32798 c 1.9913,-0.37482 3.98354,-0.74548 5.97717,-1.10917 -1.88792,2.64281 -3.87598,1.55034 -7.10102,1.32024 0.37461,-0.0705 0.74923,-0.14056 1.12385,-0.21107 m -9.5008,-0.93521 c 0.5049,-0.16885 1.00933,-0.33771 1.51423,-0.50657 -0.0153,0.3841 0.0672,0.74409 0.24758,1.07902 -0.86421,-0.0932 -1.7275,-0.19345 -2.58986,-0.29968 0.27586,-0.0909 0.55219,-0.18184 0.82805,-0.27277 m -4.40267,-3.25097 c -0.0283,-0.69352 1.01443,-0.21756 1.61206,-0.26395 -1.15213,1.01407 -1.68948,1.10221 -1.61206,0.26395 m 15.74548,-7.86439 c 0.15161,-0.19345 0.35237,-0.1837 0.60227,0.0292 -0.27262,0.0914 -1.32275,0.53673 -0.60227,-0.0292 m 10.21109,-1.20102 c 0.0269,0 0.59345,0.76496 0,0 m -0.28653,-0.25051 c 0.14836,0.11319 0.14836,0.11319 0,0 m -1.27453,-0.14891 c 2.08774,0.3521 1.92918,2.80239 0,0 m -24.52857,-0.167 c -0.42423,0.3521 -0.27911,0.0107 0,0 m 7.98424,-5.21649 c -3.54448,0.20644 -10.05066,-0.001 -13.01096,1.88712 -3.863,2.46514 -1.83043,10.95069 -1.48456,14.67065 0.51092,5.49854 3.098,7.06418 8.27633,7.64126 6.17979,0.68889 12.52926,0.81739 18.74103,0.6541 5.59421,-0.14706 8.78031,-2.07129 9.80494,-7.96135 0.31388,-1.80223 1.1104,-4.59024 1.08536,-6.31639 -0.0172,-1.19731 -0.61385,-1.74331 -0.83964,-2.76156 -1.28473,-5.79682 -3.43321,-6.48431 -9.37468,-6.73713 -4.373,-0.18602 -8.90688,-1.30122 -13.19782,-1.0767"
             style="fill:#ac9393" />
        </g>
        <g
           id="humaaans/standing-13"
           transform="matrix(0.57447883,0,0,0.59201134,105.05431,352.38704)"
           style="fill:none;fill-rule:evenodd;stroke:none;stroke-width:1">
          <g
             transform="translate(28,1)"
             id="humaaan-5">
            <g
               transform="rotate(-15,169.17363,-161.40329)"
               id="Head/Front/Long">
              <path
                 id="Hair-Back"
                 d="m 103.66577,48.385803 c 3.74211,13.514577 8.69503,44.502523 3.70042,49.33936 H 75.9527 C 75.9495,97.669493 75.9463,97.613972 75.9432,97.55859 64.300031,96.270063 55.244418,86.398422 55.244418,74.411729 V 52.277535 c 0,-12.862333 10.426981,-23.289313 23.289314,-23.289313 h 2.166448 c 11.536285,0 21.11348,8.387857 22.96559,19.397581 z"
                 style="fill:#191847" />
              <g
                 transform="translate(58.49409,33.282773)"
                 id="Head"
                 style="fill:#b28b67;stroke-width:1">
                <path
                   id="path4079"
                   d="M 8.9498924,37.029905 C 3.9584948,31.222865 0.5802124,24.106258 1.1447254,16.131896 2.7712444,-6.8444633 35.040701,-1.789957 41.317779,9.806536 47.594856,21.403029 46.848976,50.818495 38.736413,52.891112 35.501134,53.717669 28.609027,51.692936 21.594471,47.502361 l 4.402902,30.873201 H 0 Z" />
              </g>
              <path
                 id="Hair-Front"
                 d="m 74.471604,66.431163 c 1.197804,12.752677 0.717928,27.315956 -2.851799,30.772922 H 40.206312 C 38.456046,67.06316 55.371446,78.735076 55.371446,50.356613 c 1.05461,-1.021297 2.051131,-2.032147 3.037197,-2.903904 l -0.03492,-0.834602 C 63.813316,35.580608 70.71437,30.061859 79.07688,30.061859 c 12.543766,0 16.503097,5.785107 19.874193,10.696746 -2.520833,8.573094 -12.303528,9.844294 -20.996064,15.188138 -1.024607,-0.825098 -2.331125,-1.319607 -3.754173,-1.319607 -3.290364,0 -5.957731,2.643763 -5.957731,5.905009 0,3.261245 2.667367,5.905008 5.957731,5.905008 0.09074,0 0.181014,-0.002 0.270768,-0.006 z"
                 style="fill:#191847" />
            </g>
            <g
               transform="translate(0,218.45249)"
               id="Bottom/Standing/Skirt">
              <path
                 id="Skirt-Shadow"
                 d="m 105.51448,105.84111 c 25.98584,7.24021 48.40563,10.86031 67.25938,10.86031 18.85375,0 36.36599,-5.5749 52.53671,-16.724688 -25.42951,-7.431413 -46.37183,-11.14712 -62.82699,-11.14712 -16.45515,0 -35.44485,5.670499 -56.9691,17.011498 z"
                 style="fill:#1f28cf" />
              <path
                 id="Leg"
                 d="m 195.26934,127.13734 c -0.25056,-0.37522 -0.46217,-0.7834 -0.63001,-1.22554 C 191.16587,116.76145 135.5296,18.047546 129.98687,0 h 62.63859 c 4.21422,13.721804 23.182,99.832665 25.8514,117.01305 8.42242,27.1002 25.76334,114.86785 27.97705,120.94812 2.32879,6.39635 -10.77452,13.05969 -14.26625,5.19617 -5.55592,-12.51217 -18.79402,-47.13315 -24.6884,-68.27247 -5.52596,-19.81807 -10.02557,-37.64751 -12.22992,-47.74753 z"
                 style="fill:#997659" />
              <path
                 id="path4086"
                 d="m 144.02226,139.18945 c -25.43599,6.40398 -118.475477,17.98124 -124.860254,19.79711 -6.567944,1.86796 -12.3267741,-11.61778 -4.208441,-14.53902 12.917639,-4.64818 48.511582,-15.38801 70.092319,-19.77072 17.358236,-3.52518 33.197846,-6.40173 43.832136,-8.08621 C 127.97711,86.834186 123.8588,15.42333 126.55812,0 h 55.42349 c -2.58846,14.789936 -24.4699,122.70614 -28.53688,133.50825 -1.29066,3.85642 -5.14172,5.56067 -9.42247,5.6812 z"
                 style="fill:#b28b67" />
              <g
                 transform="rotate(80,-58.299031,91.62237)"
                 id="Accessories/Shoe/Flat-Sneaker"
                 style="fill:#e4e4e4">
                <path
                   id="shoe"
                   d="m 2.9010163,27.515971 c -1.2118616,3.235034 -1.8177924,5.655587 -1.8177924,7.261659 0,1.953362 0.3254158,4.803804 0.9762475,8.551325 2.2660378,0 22.6313016,0 61.0957906,0 1.587663,-5.248753 0.671171,-8.082386 -2.749474,-8.500899 -3.420645,-0.418513 -6.262233,-0.796396 -8.524764,-1.13365 L 23.484286,21.034998 c -0.54641,-0.243592 -1.186833,0.0019 -1.430425,0.5483 -0.0042,0.0093 -0.0082,0.01875 -0.0121,0.02822 l -1.825321,4.427775 c -3.166623,1.477471 -5.739833,2.216206 -7.719629,2.216206 -1.608538,0 -3.8299428,-0.649637 -6.6642139,-1.94891 l 5.9e-6,-1.3e-5 c -1.0876658,-0.498603 -2.3735905,-0.02107 -2.8721933,1.066593 -0.021491,0.04688 -0.0413,0.09451 -0.059391,0.142806 z" />
              </g>
              <g
                 transform="translate(225.31057,214.72927)"
                 id="g4092"
                 style="fill:#e4e4e4">
                <path
                   id="path4090"
                   d="m 2.9010163,27.515971 c -1.2118616,3.235034 -1.8177924,5.655587 -1.8177924,7.261659 0,1.953362 0.3254158,4.803804 0.9762475,8.551325 2.2660378,0 22.6313016,0 61.0957906,0 1.587663,-5.248753 0.671171,-8.082386 -2.749474,-8.500899 -3.420645,-0.418513 -6.262233,-0.796396 -8.524764,-1.13365 L 23.484286,21.034998 c -0.54641,-0.243592 -1.186833,0.0019 -1.430425,0.5483 -0.0042,0.0093 -0.0082,0.01875 -0.0121,0.02822 l -1.825321,4.427775 c -3.166623,1.477471 -5.739833,2.216206 -7.719629,2.216206 -1.608538,0 -3.8299428,-0.649637 -6.6642139,-1.94891 l 5.9e-6,-1.3e-5 c -1.0876658,-0.498603 -2.3735905,-0.02107 -2.8721933,1.066593 -0.021491,0.04688 -0.0413,0.09451 -0.059391,0.142806 z" />
              </g>
              <path
                 id="Skirt"
                 d="m 126.7372,0 c 24.42327,-6.9606155 47.53205,-6.9606155 69.32632,0 7.58257,34.461855 26.00706,48.139792 29.24705,100.97555 C 188.48096,119.20466 142.98555,87.974751 105.07272,105.7518 94.240478,80.88615 109.40561,21.003024 126.7372,0 Z"
                 style="fill:#2b44ff" />
            </g>
            <g
               transform="rotate(-10,755.731,24.08949)"
               id="Body/Pointing-Forward">
              <path
                 id="Skin"
                 d="m 171.84051,46.02606 37.59847,-20.49109 c 6.25239,-7.388166 12.41274,-13.126112 18.48105,-17.2138379 1.85428,-0.7703177 5.09694,-1.2365689 2.06443,4.1193179 -3.0325,5.355886 -5.98018,11.125186 -4.43524,12.775219 1.54495,1.650033 5.3974,-0.65499 7.24049,2.086553 1.22873,1.827696 -5.35288,4.71494 -19.74483,8.661734 l -27.31987,24.891048 z m 58.88618,17.288897 16.5154,-9.027993 c 2.31734,-8.774325 5.08744,-13.188985 8.3103,-13.243979 2.47583,-1.146303 -1.83581,9.940876 2.85758,8.979398 4.69339,-0.961478 16.1486,-9.439165 18.12239,-7.717874 2.92009,2.546539 0.31636,10.365888 -2.75146,14.255596 -5.73375,7.269858 -10.48105,9.75593 -22.21474,13.011457 -6.13498,1.702157 -12.76798,5.113985 -19.89899,10.235484 z"
                 style="fill:#997659" />
              <path
                 transform="rotate(-9,179.70675,47.160725)"
                 id="Sleeve"
                 d="m 154.74361,37.436545 c 13.02892,1.923414 30.80713,1.936947 51.16613,-6.821721 l 4.7137,17.28007 c -14.76273,10.584867 -34.35348,18.099866 -49.97935,15.175361 -12.31404,-2.30467 -16.2776,-18.193323 -5.90048,-25.63371 z"
                 style="fill:#2026a2" />
              <path
                 id="Clothes"
                 d="m 171.26232,67.649569 c 13.98094,3.469582 37.42612,-0.622014 70.33553,-12.274785 8.16289,16.804377 11.9364,28.784608 11.3205,35.940695 -28.23142,14.674361 -52.42819,21.216911 -72.3631,21.648811 0.63351,11.77036 -0.80625,22.97013 -5.64283,33.20373 -9.94318,21.03853 -68.16606,1.5545 -87.742374,5.38944 C 74.910782,111.94007 98.61444,95.839727 98.633512,70.490215 98.654398,42.729798 121.05505,0 124.35085,0 h 30.05594 c 1.65837,21.200996 10.00537,44.566331 16.85553,67.649569 z"
                 style="fill:#1f28cf" />
            </g>
          </g>
        </g>
      </g>
    </g>
  </g>
</svg>
