<?xml version="1.0" encoding="UTF-8" standalone="no"?>
<svg
   xmlns:dc="http://purl.org/dc/elements/1.1/"
   xmlns:cc="http://creativecommons.org/ns#"
   xmlns:rdf="http://www.w3.org/1999/02/22-rdf-syntax-ns#"
   xmlns:svg="http://www.w3.org/2000/svg"
   xmlns="http://www.w3.org/2000/svg"
   height="128"
   width="94"
   version="1.1"
   id="svg2816">
  <metadata
     id="metadata2822">
    <rdf:RDF>
      <cc:Work
         rdf:about="">
        <dc:format>image/svg+xml</dc:format>
        <dc:type
           rdf:resource="http://purl.org/dc/dcmitype/StillImage" />
        <dc:title></dc:title>
      </cc:Work>
    </rdf:RDF>
  </metadata>
  <defs
     id="defs2820" />
  <path
     id="path4127"
     d="M 93.052321,254.41826 C 92.482177,253.03334 80.637156,241.45008 72.154848,230.92472 21.9006,164.20245 -34.128927,102.20769 31.296078,26.868184 60.264858,-1.1195258 95.985373,-2.7161342 132.70734,10.329502 236.10687,70.161657 161.24432,167.76706 112.08876,231.93193 Z M 124.15576,152.14347 C 193.12307,102.82116 139.80384,7.8446803 64.029393,39.418385 41.902481,51.216568 30.923432,71.744884 30.538913,95.958467 29.482359,119.51341 41.991742,139.21019 61.81528,151.27611 c 14.212713,7.73553 20.460838,9.13271 36.553083,8.17383 10.429917,-0.62149 16.439947,-2.32434 25.787397,-7.30647 z"
     style="fill:#339966;fill-opacity:1;stroke-width:2.01442146" />
  <path
     d="M 73.284638,175.69133 A 90.626282,88.475731 0 0 1 3.4307667,71.260967 90.626282,88.475731 0 0 1 109.95346,2.4025265 90.626282,88.475731 0 0 1 181.16106,105.95781 90.626282,88.475731 0 0 1 75.5433,176.13227"
     id="path4129"
     style="fill:#339966;fill-opacity:1;fill-rule:nonzero;stroke:none;stroke-width:1.93623626" />
  <path
     transform="translate(0.64534523,0)"
     d="m 43.631232,69.128546 a 26.010695,20.991087 0 1 1 0.64826,0.104614"
     id="path4131"
     style="opacity:0.34016395;fill:#000000;fill-opacity:0;fill-rule:nonzero;stroke:none" />
  <path
     transform="translate(0.64534523,0)"
     d="m 31.892136,114.28 a 16.655972,11.750445 0 1 1 0.415114,0.0586"
     id="path4135"
     style="fill:#000080;fill-opacity:0;fill-rule:nonzero;stroke:none" />
</svg>
